{"title":"The Croods (2013) BRrip 1080p Dual Audio {6Ch.} {Hindi-English} ","uid":9014630,"size":3141787944,"categoryP":"video","categoryS":"hd___movies","magnet":"?xt=urn:btih:04383314cccece447ab05512ffabdb1a5f4e0d7f&amp;dn=The+Croods+%282013%29+BRrip+1080p+Dual+Audio+%7B6Ch.%7D+%7BHindi-English%7D+&amp;tr=udp%3A%2F%2Ftracker.openbittorrent.com%3A80&amp;tr=udp%3A%2F%2Fopen.demonii.com%3A1337&amp;tr=udp%3A%2F%2Ftracker.coppersurfer.tk%3A6969&amp;tr=udp%3A%2F%2Fexodus.desync.com%3A6969","seeders":2,"leechers":2,"uploader":"SaNRiM","files":-1,"time":1381172110,"description":"Storyline\n\nThe Croods is a prehistoric comedy adventure that follows the world's first family as they embark on a journey of a lifetime when the cave that has always shielded them from danger is destroyed. Traveling across a spectacular landscape, the Croods discover an incredible new world filled with fantastic creatures -- and their outlook is changed forever.\n\n\n\nTorrent Info\n\nGeneral\n\nUnique ID : 239068648029940880749866554865563908627 (0xB3DAF261848EABAD90A969D895E6BA13)\nComplete name : The Croods (2013) BRrip 1080p Dual Audio {6Ch.} {Hindi-English} ~SaNRiM~.mkv\nFormat : Matroska\nFormat version : Version 4 / Version 2\nFile size : 2.93 GiB\nDuration : 1h 38mn\nOverall bit rate : 4 248 Kbps\nEncoded date : UTC 2013-10-07 16:19:26\nWriting application : mkvmerge v6.4.1 ('Omega Point') built on Sep 16 2013 22:05:10\nWriting library : libebml v1.3.0 + libmatroska v1.4.1\n\n\nVideo\n\nID : 1\nFormat : AVC\nFormat/Info : Advanced Video Codec\nFormat profile : &lt;a class=&quot;__cf_email__&quot; href=&quot;/cdn-cgi/l/email-protection&quot; data-cfemail=&quot;f8b0919f90b8b4ccd6c9&quot;&gt;[email&amp;#160;protected]&lt;/a&gt;&lt;script cf-hash='f9e31' type=&quot;text/javascript&quot;&gt;\n/* &lt;![CDATA[ */!function(){try{var t=&quot;currentScript&quot;in document?document.currentScript:function(){for(var t=document.getElementsByTagName(&quot;script&quot;),e=t.length;e--;)if(t[e].getAttribute(&quot;cf-hash&quot;))return t[e]}();if(t&amp;&amp;t.previousSibling){var e,r,n,i,c=t.previousSibling,a=c.getAttribute(&quot;data-cfemail&quot;);if(a){for(e=&quot;&quot;,r=parseInt(a.substr(0,2),16),n=2;a.length-n;n+=2)i=parseInt(a.substr(n,2),16)^r,e+=String.fromCharCode(i);e=document.createTextNode(e),c.parentNode.replaceChild(e,c)}}}catch(u){}}();/* ]]&gt; */&lt;/script&gt;\nFormat settings, CABAC : Yes\nFormat settings, ReFrames : 5 frames\nCodec ID : V_MPEG4/ISO/AVC\nDuration : 1h 38mn\nBit rate : 3 350 Kbps\nWidth : 1 920 pixels\nHeight : 816 pixels\nDisplay aspect ratio : 2.35:1\nFrame rate mode : Constant\nFrame rate : 23.976 fps\nColor space : YUV\nChroma subsampling : 4:2:0\nBit depth : 8 bits\nScan type : Progressive\nBits/(Pixel*Frame) : 0.089\nStream size : 2.25 GiB (77%)\nTitle : ~SaNRiM~\nWriting library : x264 core 133 r2334 a3ac64b\nLanguage : English\nDefault : Yes\nForced : No\n\n\nAudio #1\n\nID : 2\nFormat : AC-3\nFormat/Info : Audio Coding 3\nMode extension : CM (complete main)\nFormat settings, Endianness : Big\nCodec ID : A_AC3\nDuration : 1h 38mn\nBit rate mode : Constant\nBit rate : 448 Kbps\nChannel(s) : 6 channels\nChannel positions : Front: L C R, Side: L R, LFE\nSampling rate : 48.0 KHz\nBit depth : 16 bits\nCompression mode : Lossy\nStream size : 316 MiB (11%)\nTitle : ~SaNRiM~\nLanguage : Hindi\nDefault : No\nForced : Yes\n\n\nAudio #2\n\nID : 3\nFormat : AC-3\nFormat/Info : Audio Coding 3\nMode extension : CM (complete main)\nFormat settings, Endianness : Big\nCodec ID : A_AC3\nDuration : 1h 38mn\nBit rate mode : Constant\nBit rate : 448 Kbps\nChannel(s) : 6 channels\nChannel positions : Front: L C R, Side: L R, LFE\nSampling rate : 48.0 KHz\nBit depth : 16 bits\nCompression mode : Lossy\nStream size : 316 MiB (11%)\nTitle : ~SaNRiM~\nLanguage : English\nDefault : No\nForced : No\n\n\n\nScreens\n\n[IMG]http://cdn.piczend.com/images/8iPSYehS/1381148498_vlcsnap-2013-10-07-17h43m06s219.png[/IMG]\n[IMG]http://cdn.piczend.com/images/PNJQI0Gs/1381148508_vlcsnap-2013-10-07-17h43m10s252.png[/IMG]\n[IMG]http://cdn.piczend.com/images/i7ZvkJ6O/1381148467_vlcsnap-2013-10-07-17h43m46s102.png[/IMG]\n[IMG]http://cdn.piczend.com/images/d4HsVrEk/1381148465_vlcsnap-2013-10-07-17h43m54s178.png[/IMG]\n[IMG]http://cdn.piczend.com/images/GFdfsOgI/1381148517_vlcsnap-2013-10-07-17h44m09s81.png[/IMG]\n[IMG]http://cdn.piczend.com/images/XpxyI6mg/1381148469_vlcsnap-2013-10-07-17h44m14s130.png[/IMG]\n[IMG]http://cdn.piczend.com/images/gJvTbHNv/1381148636_vlcsnap-2013-10-07-17h44m17s163.png[/IMG]\n[IMG]http://cdn.piczend.com/images/0YtxCnHR/1381148629_vlcsnap-2013-10-07-17h44m43s162.png[/IMG]\n[IMG]http://cdn.piczend.com/images/j2HUy0Tt/1381148633_vlcsnap-2013-10-07-17h44m50s234.png[/IMG]\n[IMG]http://cdn.piczend.com/images/X6IsnIn0/1381148555_vlcsnap-2013-10-07-17h45m17s247.png[/IMG]\n[IMG]http://cdn.piczend.com/images/gsGwGFVI/1381148564_vlcsnap-2013-10-07-17h45m27s91.png[/IMG]\n[IMG]http://cdn.piczend.com/images/txmhDGGn/1381148589_vlcsnap-2013-10-07-17h45m55s112.png[/IMG]\n[IMG]http://cdn.piczend.com/images/jOKJdMJg/1381148682_vlcsnap-2013-10-07-17h45m58s147.png[/IMG]\n[IMG]http://cdn.piczend.com/images/8KE8pTnv/1381148678_vlcsnap-2013-10-07-17h46m05s217.png[/IMG]\n[IMG]http://cdn.piczend.com/images/Q6kuHxkK/1381148647_vlcsnap-2013-10-07-17h46m10s10.png[/IMG]\n\n\n\n                     If you like my work please comment\n                          Any request? Just PM me\n                       Please seed long after download\n                         Thank you &amp; enjoy the best\n                                 ~SaNRiM~","torrent":{"xt":"urn:btih:04383314cccece447ab05512ffabdb1a5f4e0d7f","amp;dn":"The+Croods+%282013%29+BRrip+1080p+Dual+Audio+%7B6Ch.%7D+%7BHindi-English%7D+","amp;tr":["udp%3A%2F%2Ftracker.openbittorrent.com%3A80","udp%3A%2F%2Fopen.demonii.com%3A1337","udp%3A%2F%2Ftracker.coppersurfer.tk%3A6969","udp%3A%2F%2Fexodus.desync.com%3A6969"],"infoHash":"04383314cccece447ab05512ffabdb1a5f4e0d7f","infoHashBuffer":{"type":"Buffer","data":[4,56,51,20,204,206,206,68,122,176,85,18,255,171,219,26,95,78,13,127]},"announce":[],"urlList":[]}}